<svg width="100" height="100" viewBox="0 0 100 100" fill="none" xmlns="http://www.w3.org/2000/svg">
<rect x="4" y="18" width="30" height="30" rx="15" fill="white"/>
<rect x="7.00018" y="20.9999" width="24" height="24" rx="12" fill="url(#paint0_linear_115_2)"/>
<rect x="35" y="2" width="30" height="30" rx="15" fill="white"/>
<rect x="38.0002" y="4.99994" width="24" height="24" rx="12" fill="url(#paint1_linear_115_2)"/>
<rect x="4" y="52" width="30" height="30" rx="15" fill="white"/>
<rect x="7.00012" y="54.9999" width="24" height="24" rx="12" fill="url(#paint2_linear_115_2)"/>
<rect x="35" y="35" width="30" height="30" rx="15" fill="white"/>
<rect x="38.0001" y="37.9999" width="24" height="24" rx="12" fill="url(#paint3_linear_115_2)"/>
<rect x="66" y="52" width="30" height="30" rx="15" fill="white"/>
<rect x="69.0001" y="54.9999" width="24" height="24" rx="12" fill="url(#paint4_linear_115_2)"/>
<rect x="35" y="68" width="30" height="30" rx="15" fill="white"/>
<rect x="38.0001" y="71" width="24" height="24" rx="12" fill="url(#paint5_linear_115_2)"/>
<rect x="66" y="18" width="30" height="30" rx="15" fill="white"/>
<rect x="69.0001" y="20.9999" width="24" height="24" rx="12" fill="url(#paint6_linear_115_2)"/>
<defs>
<linearGradient id="paint0_linear_115_2" x1="19.0002" y1="20.9999" x2="19.0002" y2="44.9999" gradientUnits="userSpaceOnUse">
<stop stop-color="#FFC267"/>
<stop offset="1" stop-color="#FFA41B"/>
</linearGradient>
<linearGradient id="paint1_linear_115_2" x1="50.0002" y1="4.99994" x2="50.0002" y2="28.9999" gradientUnits="userSpaceOnUse">
<stop stop-color="#FF9496"/>
<stop offset="1" stop-color="#FF1B1F"/>
</linearGradient>
<linearGradient id="paint2_linear_115_2" x1="19.0001" y1="54.9999" x2="19.0001" y2="78.9999" gradientUnits="userSpaceOnUse">
<stop stop-color="#B9FFB8"/>
<stop offset="1" stop-color="#1FFF1B"/>
</linearGradient>
<linearGradient id="paint3_linear_115_2" x1="50.0001" y1="37.9999" x2="50.0001" y2="61.9999" gradientUnits="userSpaceOnUse">
<stop stop-color="#A1A1A1"/>
<stop offset="1"/>
</linearGradient>
<linearGradient id="paint4_linear_115_2" x1="81.0001" y1="54.9999" x2="81.0001" y2="78.9999" gradientUnits="userSpaceOnUse">
<stop stop-color="#7D99FF"/>
<stop offset="1" stop-color="#1B4CFF"/>
</linearGradient>
<linearGradient id="paint5_linear_115_2" x1="50.0001" y1="71" x2="50.0001" y2="95" gradientUnits="userSpaceOnUse">
<stop stop-color="#9FF5FF"/>
<stop offset="1" stop-color="#1BE8FF"/>
</linearGradient>
<linearGradient id="paint6_linear_115_2" x1="81.0001" y1="20.9999" x2="81.0001" y2="44.9999" gradientUnits="userSpaceOnUse">
<stop stop-color="#FFA3F7"/>
<stop offset="1" stop-color="#FF1BEC"/>
</linearGradient>
</defs>
</svg>
